# xmcd
# Track frame offsets:
# 150
# 17029
# 53878
# 91407
# 121379
# 143771
# 172654
# 195101
# 224871
# 249926
# 277818
# 312185
#
# Disc length: 4511 seconds
# Revision: 0
# Processed by: cddbd v1.4PL0 Copyright (c) Steve Scherf et al.
# Submitted via: VisiTrax 2.9.5.181 - For more info visit www.synapsa.com
#
DISCID=9c119d0c
DTITLE=Louisiana Red - Always Played The Blues
DYEAR=1994
DGENRE=
TTITLE0=Valerie
TTITLE1=This Little Letter
TTITLE2=Sun Goes Down
TTITLE3=Down So Long
TTITLE4=Vivienne
TTITLE5=Hello, Mean Old World
TTITLE6=Leaving Town
TTITLE7=Steel On My Hand
TTITLE8=The Best Place
TTITLE9=I'm Leaving
TTITLE10=Feeling Inside
TTITLE11=Mambo Mumbo
EXTD=c 1994 JSP Records\n\nLouisiana Red  -  Guitar, Harmonica, Vocals \nJo
EXTD=n Cleary  -  Piano \nMarty David  -  Bass, Performer \nJohn Stedma
EXTD=n  -  Producer, Liner Notes \nRichard Studholme  -  Guitar, Guitar \nP
EXTD=at Stapley  -  Engineer \nSylvia Pitcher  -  Photography \nLouisiana "
EXTD=Guitar" Red  -  Guitar, Harmonica, Vocals \nJan Cleary  -  Piano, Perf
EXTD=ormer \nGeoff Nicholls  -  Drums
EXTT0=Louisiana Red \n\nAKA  born: Iverson Minter \nBorn  Mar 23, 1936 in Vi
EXTT0=cksburg, MS \n\nLouisiana Red (born Iverson Minter) is a flamboyant gu
EXTT0=itarist, harmonica player and vocalist. He lost his parents early in l
EXTT0=ife through multiple tragedies - his mother died of pneumonia a week af
EXTT0=ter his birth, and his father was lynched by the Klu Klux Klan when h
EXTT0=e was five. Red began recording for Chess in 1949, then joined the arm
EXTT0=y. After his discharge, he played with John Lee Hooker in Detroit fo
EXTT0=r almost two years in the late '50s. He maintained a busy recording an
EXTT0=d performing schedule through the 1990s, having done sessions for Ches
EXTT0=s, Checker, Atlas, Glover, Roulette, L&R and Tomato among others. by R
EXTT0=on Wynn
EXTT1=
EXTT2=
EXTT3=
EXTT4=
EXTT5=
EXTT6=
EXTT7=
EXTT8=
EXTT9=
EXTT10=
EXTT11=
PLAYORDER=
